<?xml version="1.0" encoding="UTF-8"?><svg id="a" xmlns="http://www.w3.org/2000/svg" width="57.25" height="55.5" viewBox="0 0 57.25 55.5"><polygon points="20.79 19.49 31.18 37.5 41.58 55.5 20.79 55.5 0 55.5 10.39 37.5 20.79 19.49"/><polygon points="34.18 37.5 41.22 49.69 42.12 49.69 57.25 49.69 49.69 36.59 42.12 23.49 34.56 36.59 34.11 37.37 34.18 37.5"/><path d="M10.25,31.16c-.96-2.37-1.5-4.95-1.5-7.66C8.75,12.2,17.94,3,29.25,3s20.5,9.2,20.5,20.5c0,2.08-.32,4.08-.89,5.97l2.02,3.23c1.21-2.83,1.88-5.94,1.88-9.2C52.75,10.54,42.21,0,29.25,0S5.75,10.54,5.75,23.5c0,3.89,.95,7.55,2.63,10.78l1.87-3.12Z"/></svg>